<svg width="396" height="119.8153846153846" viewBox="0 0 390 118" class="looka-1j8o68f">
    <defs id="SvgjsDefs1001"></defs>
    <g id="SvgjsG1007" featurekey="rootContainer" transform="matrix(1,0,0,1,0,0)" fill="#333f44">
        <rect xmlns="http://www.w3.org/2000/svg" width="390" height="118" rx="10" ry="10"></rect>
    </g>
    <g id="SvgjsG1008" featurekey="q4o0QG-0"
        transform="matrix(5.1334710121154785,0,0,5.1334710121154785,17.330595293699268,-5.564684569038754)"
        fill="#94f3e4">
        <path
            d="M0.52 20 l0.24 -14.5 l2.38 -0.18 l1.08 0.12 l1.02 6.94 l0.6 -7.16 l4.1 0.5 c0.02 0.76 0.04 1.54 0.04 2.36 c0.08 1.38 0.18 3.18 0.18 4.84 c0.06 2.68 -0.02 4.6 0.16 7.12 l-1.76 -0.04 l-0.14 -8.98 l-0.38 -0.08 l-1 7.96 l-0.34 0.98 l-2.12 0.12 l-1.02 -8.4 l-0.6 0.14 l0.22 8.38 z M18.42 6.16 l0.38 2.7 l-0.02 0.08 c0 0.02 -0.08 0.96 -0.12 1.9 c-0.04 0.54 -0.08 1.18 -0.1 1.88 l-0.72 1.28 l-1.92 0.64 l-1.7 0.08 l0.28 3.36 l0.1 1.7 l-1.38 0.16 c-0.14 0 -0.38 0.02 -0.6 0.04 c-0.14 0.02 -0.28 0.02 -0.42 0.02 l-0.7 -0.12 l0 -3.04 l-0.12 -1.98 c-0.02 -0.42 -0.02 -0.8 -0.02 -1.14 c-0.02 -0.62 -0.02 -1.22 -0.02 -1.44 l0 -4.62 l0.08 -2.36 l0.78 0 c0.46 0 1 -0.02 1.5 -0.02 c0.98 0 2.02 -0.04 2.28 0.02 c0.22 0.06 0.66 0.1 1.04 0.16 l0.7 0.12 z M15.6 12.68 l0.3 -0.3 c0 -0.32 0.1 -2.02 0.1 -2.22 s-0.18 -0.9 -0.22 -1.1 l-0.48 -0.52 l-0.68 -0.16 l-1.36 0 l-0.12 0.34 l-0.08 1.44 l0.16 2.52 l0.8 0.16 z M23.32 5.2 l0 12.2 l1.5 0.28 l1.46 0.04 l-0.14 2.26 l-1.14 0 l-3.8 0.14 l-1.26 -0.04 l-0.26 -13.28 l0.12 -1.44 z M33 5.52 l0.52 0.86 l0 2.44 l-0.06 1.24 l-2.68 -0.14 l0 -0.78 l0 -1.06 l-1.32 0.02 l-0.22 0.56 l0.22 2.72 l2.06 0.12 l2 0.24 l0.06 2.54 l0 1.8 l-0.26 3.14 l-1.8 0.88 l-2.64 -0.12 l-1.2 -0.48 l-0.6 -0.46 l-0.28 -1.46 l0.1 -2.48 l0.1 -0.8 l0.68 0.04 l1.56 0.18 l0 0.6 l0 0.66 l0 0.34 l0 0.54 l1.88 0.22 l0.06 -3.6 l-3.98 -0.22 l-0.16 -4.4 l-0.04 -2.88 l0.66 -0.48 c0.46 -0.02 0.86 -0.06 1.24 -0.1 c0.64 -0.06 1.28 -0.1 1.42 -0.1 c0.1 0 0.46 0.02 0.8 0.04 l0.64 0.04 z M34.9 17.7 l0.06 -0.42 l0.46 0 l1.88 0 l0.24 0.24 l0.1 1.8 l-0.16 0.58 l-0.92 0.1 l-0.82 0 l-0.6 -0.04 l-0.24 -0.16 l0 -2.1 z M41.68 15 l-0.12 2.24 l0.66 0.28 l0.62 -0.12 l0.42 -0.92 l-0.1 -1.38 l-0.34 -0.98 l-0.58 -0.02 l-0.68 0 z M41.56 7.66 l0.2 4.38 l0.84 -0.12 l0.76 -0.62 l0.28 -1.34 l0.08 -1.58 l-0.94 -0.68 l-0.56 -0.08 z M43.18 20 l-4.14 0.04 l-0.32 -3.78 l0.1 -5.18 l0 -5.74 l3.78 -0.04 l1.54 0.32 l1.28 0.38 l0.24 0.44 l0.82 3.54 l-0.2 1.76 l-0.46 0.88 l-0.34 0.34 l-0.86 0.26 l0.92 0.4 l0.48 0.4 l0.5 1.92 l-0.4 3.08 l-0.86 0.7 z M47.74 8.88 l3.2 0.08 l-0.16 2.5 l0.24 5.08 l-0.14 3.38 l-0.28 0.04 l-2.8 -0.06 l-0.12 -0.92 l-0.04 -5.36 z M47.86 4.98 l3.02 0.04 l0.14 0.78 l0 1.34 l-0.08 0.72 l-3.2 0.02 l-0.1 -1.3 l-0.04 -1.4 z M60.9 19.98 l-3.36 0.06 l-1.18 -6.68 l-1.08 -0.02 l0 2.26 l0.24 4.28 l-0.24 0.1 l-2.58 -0.1 l-0.22 -0.96 l-0.08 -7.1 l0.4 -6.58 l2.66 0.1 l-0.18 3.62 l0 1.52 l0.88 0 l2.42 -5.12 l1.6 0 l0.36 0.16 l-2.8 5.72 z M61.68 19.92 l-0.04 -6.94 l0.08 -0.74 l-0.04 -0.74 l0.1 -4.42 l0.18 -1.72 l6.5 0.12 l0.1 3.9 l-4.26 0 l-0.08 2.5 l3.26 -0.06 l0 0.22 l0.1 1.7 l-3.04 0.06 l0.1 2.96 l4.06 0.2 l0 3.08 z"></path>
    </g>
</svg>