<?xml version="1.0" standalone="no"?>
<!DOCTYPE svg PUBLIC "-//W3C//DTD SVG 1.1//EN" "http://www.w3.org/Graphics/SVG/1.1/DTD/svg11.dtd">
<svg version="1.1" xmlns="http://www.w3.org/2000/svg" viewBox="0 0 578 691" width="1156" height="1382"><!-- svg-source:excalidraw --><metadata></metadata><defs><style class="style-fonts">
      </style></defs><g transform="translate(568 169.5) rotate(0 -279 176)" stroke="none"><path d="M-462.68 -105.4 C-462.68 -105.4, -462.68 -105.4, -462.68 -105.4 M-462.68 -105.4 C-462.68 -105.4, -462.68 -105.4, -462.68 -105.4 M-499.15 -39.05 C-467.1 -78.31, -434.86 -115.14, -401.4 -151.51 M-499.15 -39.05 C-470.4 -71.1, -440.44 -104.62, -401.4 -151.51 M-503.48 -9.69 C-453.18 -64.8, -408.14 -121.17, -376.2 -156.1 M-503.48 -9.69 C-460.74 -58.49, -419.17 -106.69, -376.2 -156.1 M-503.21 14.39 C-459.12 -35.48, -415.38 -87.45, -352.32 -159.19 M-503.21 14.39 C-465.98 -27.09, -428.3 -69.5, -352.32 -159.19 M-503.6 39.23 C-441.15 -34.59, -377.6 -107.97, -331.06 -159.26 M-503.6 39.23 C-441.71 -32.75, -376.67 -106.59, -331.06 -159.26 M-503.34 63.31 C-431.89 -16.11, -365.16 -94.26, -309.8 -159.33 M-503.34 63.31 C-431.27 -21.36, -357.08 -105.88, -309.8 -159.33 M-503.73 88.15 C-420.83 -7.09, -335.72 -105.2, -289.2 -158.64 M-503.73 88.15 C-437.51 11.24, -369.87 -65.66, -289.2 -158.64 M-506.08 115.25 C-441.38 42.7, -374.75 -33.1, -269.25 -157.2 M-506.08 115.25 C-420.53 15.25, -332.6 -83.89, -269.25 -157.2 M-509.1 143.1 C-419.41 38.87, -328.72 -65.98, -249.96 -155.01 M-509.1 143.1 C-428.37 48.1, -346.64 -46.77, -249.96 -155.01 M-514.08 173.22 C-483.76 140.92, -455.82 109.4, -389.43 29.83 M-514.08 173.22 C-475.38 129.55, -437.16 86.97, -389.43 29.83 M-330.38 -38.1 C-306.43 -65.51, -279.51 -98.25, -230.66 -152.81 M-330.38 -38.1 C-302.93 -68.13, -276.23 -99.32, -230.66 -152.81 M-519.72 204.1 C-491.05 175.4, -465.34 143.25, -401.63 68.25 M-519.72 204.1 C-481.56 159.73, -444.54 117.39, -401.63 68.25 M-303.88 -44.2 C-279.5 -72.48, -258.44 -97.33, -212.03 -149.86 M-303.88 -44.2 C-270.2 -85.04, -236 -124.34, -212.03 -149.86 M-526.01 235.73 C-495.49 199.03, -462.71 164.39, -415.8 108.93 M-526.01 235.73 C-486.44 189.78, -447.18 144.72, -415.8 108.93 M-281.3 -45.78 C-246.95 -84.53, -212.55 -124.54, -193.39 -146.91 M-281.3 -45.78 C-247.39 -83.96, -214.34 -123.47, -193.39 -146.91 M-536.24 271.88 C-508.88 239.5, -482.03 208.66, -427.34 146.6 M-536.24 271.88 C-493.36 222.93, -450.31 174.3, -427.34 146.6 M-259.39 -46.6 C-237.12 -70.91, -211.73 -98.46, -174.1 -144.72 M-259.39 -46.6 C-230.19 -80.63, -198.29 -115.8, -174.1 -144.72 M-547.13 308.79 C-523.27 284.3, -501.4 256.01, -435.6 180.49 M-547.13 308.79 C-518.75 277.28, -491.4 246.8, -435.6 180.49 M-238.13 -46.67 C-208.52 -80.37, -177.07 -116.29, -155.46 -141.77 M-238.13 -46.67 C-213.31 -75.69, -189.78 -102.45, -155.46 -141.77 M-550.8 337.4 C-524.49 309.64, -501.46 279.74, -439.93 209.86 M-550.8 337.4 C-510.93 293.08, -473.26 248.31, -439.93 209.86 M-219.49 -43.72 C-194.1 -73.82, -164.69 -103.58, -137.48 -138.06 M-219.49 -43.72 C-193.03 -72.59, -165.91 -103.42, -137.48 -138.06 M-554.47 366.01 C-527.09 338.97, -501.82 309.05, -439.66 233.94 M-554.47 366.01 C-512.73 317.49, -470.49 271.23, -439.66 233.94 M-201.51 -40.02 C-177.35 -66.59, -152.15 -95.89, -119.5 -134.36 M-201.51 -40.02 C-178.14 -67.79, -154.84 -93.67, -119.5 -134.36 M-558.14 394.62 C-516.8 350.56, -480.55 303.86, -439.39 258.02 M-558.14 394.62 C-512.97 342.29, -467.37 289.7, -439.39 258.02 M-183.53 -36.31 C-158.22 -67.13, -130.86 -99.38, -104.15 -127.63 M-183.53 -36.31 C-153.74 -72.46, -123.72 -108.11, -104.15 -127.63 M-553.28 413.42 C-520.83 373.02, -485.39 333.56, -439.78 282.86 M-553.28 413.42 C-516.45 371.69, -478.63 330.04, -439.78 282.86 M-165.55 -32.61 C-147.34 -53.63, -125.25 -76.6, -88.79 -120.91 M-165.55 -32.61 C-142.4 -60.9, -118.3 -88.24, -88.79 -120.91 M-547.77 431.47 C-510.37 390.52, -475.3 350.05, -439.52 306.94 M-547.77 431.47 C-510.14 390.5, -472.89 347.86, -439.52 306.94 M-147.57 -28.91 C-121.44 -56.23, -96.24 -85.58, -74.75 -112.68 M-147.57 -28.91 C-124.95 -54.73, -102.62 -79, -74.75 -112.68 M-540.28 447.25 C-518.84 422.68, -498.13 398.12, -437.28 328.76 M-540.28 447.25 C-520.1 422.14, -497.6 397.86, -437.28 328.76 M-323.13 197.44 C-315.71 190.28, -310.17 183.15, -295.57 165.74 M-323.13 197.44 C-313.31 185.93, -304.23 175.9, -295.57 165.74 M-130.9 -23.69 C-109.87 -49.76, -86.45 -78.16, -61.36 -103.69 M-130.9 -23.69 C-106.99 -51.17, -85.07 -76.74, -61.36 -103.69 M-531.49 461.52 C-497.94 424.04, -467.66 385.91, -433.08 348.31 M-531.49 461.52 C-499.94 426.81, -469.78 391.79, -433.08 348.31 M-326.14 225.29 C-304.25 202.21, -286.07 178.31, -273.66 164.92 M-326.14 225.29 C-309.33 204.94, -290.67 185.06, -273.66 164.92 M-114.24 -18.48 C-99.79 -36.71, -82.6 -56.61, -48.63 -93.95 M-114.24 -18.48 C-99.77 -35, -85.22 -52.4, -48.63 -93.95 M-518.1 470.51 C-499.09 448.78, -481.89 431.95, -429.53 368.62 M-518.1 470.51 C-491.85 440.15, -465.01 408.02, -429.53 368.62 M-308.82 229.75 C-297.74 214.12, -282.99 200.74, -253.05 165.6 M-308.82 229.75 C-295.13 214.42, -281.8 198.76, -253.05 165.6 M-99.54 -11 C-82.38 -29.79, -61.93 -49.62, -36.55 -83.45 M-99.54 -11 C-81.27 -33.29, -62.22 -53.39, -36.55 -83.45 M-504.06 478.74 C-469.64 442.77, -438.09 405.55, -422.71 385.15 M-504.06 478.74 C-485.6 456.72, -464.89 434.05, -422.71 385.15 M-289.53 231.95 C-271.71 209.59, -251.69 188.27, -232.45 166.29 M-289.53 231.95 C-274.86 214.74, -262 198.61, -232.45 166.29 M-86.8 -1.26 C-62.93 -29.13, -41.69 -55.12, -24.48 -72.95 M-86.8 -1.26 C-72.91 -17.93, -59.01 -34.48, -24.48 -72.95 M-488.7 485.46 C-466.7 461.75, -449.01 438.32, -416.54 402.44 M-488.7 485.46 C-467.12 461.41, -445.46 434.79, -416.54 402.44 M-268.92 232.63 C-251.48 212.83, -233.35 189.42, -213.16 168.48 M-268.92 232.63 C-249.51 210.14, -231.67 188.9, -213.16 168.48 M-79.32 14.52 C-63.76 -5.12, -44.59 -25.02, -14.37 -60.19 M-79.32 14.52 C-64.66 -3.26, -49.84 -19.98, -14.37 -60.19 M-473.35 492.18 C-449.05 464.99, -424.18 435.38, -405.12 413.69 M-473.35 492.18 C-456.6 473.97, -441.48 457.56, -405.12 413.69 M-248.97 234.07 C-233.93 216.86, -214.59 194.19, -193.87 170.68 M-248.97 234.07 C-236.43 219.89, -224.08 204.75, -193.87 170.68 M-66.59 24.26 C-50.54 4.06, -32.35 -13.96, -5.58 -45.92 M-66.59 24.26 C-49.9 3.92, -31.62 -16.43, -5.58 -45.92 M-457.34 498.15 C-433.89 470.28, -411.19 444.42, -389.76 420.42 M-457.34 498.15 C-433.32 472.25, -411.96 446.48, -389.76 420.42 M-228.37 234.76 C-217.66 220.9, -203.59 209.38, -175.23 173.63 M-228.37 234.76 C-215.35 219.1, -202.2 204.31, -175.23 173.63 M-40.74 18.91 C-29.54 6.62, -22.43 -0.87, -0.06 -27.88 M-40.74 18.91 C-31.55 8.23, -23.34 -1.06, -0.06 -27.88 M-440.01 502.61 C-424.44 486.52, -410.99 469.9, -373.75 426.39 M-440.01 502.61 C-416.65 475.75, -394.42 448.58, -373.75 426.39 M-209.73 237.71 C-197.58 224.34, -188.1 213.99, -156.59 176.58 M-209.73 237.71 C-194.19 216.93, -176.24 197.34, -156.59 176.58 M-14.23 12.81 C-12.05 8.4, -6.54 4.83, 0.2 -3.8 M-14.23 12.81 C-8.29 7.05, -2.78 0.2, 0.2 -3.8 M-423.34 507.83 C-404.48 481.97, -381.93 459.22, -356.43 430.85 M-423.34 507.83 C-409.81 492.23, -395.82 475.7, -356.43 430.85 M-192.41 242.17 C-177.92 224.41, -162.53 209.14, -137.96 179.53 M-192.41 242.17 C-170 217.84, -149.4 193.26, -137.96 179.53 M-404.71 510.78 C-387.26 490.17, -371.15 474.67, -337.13 433.04 M-404.71 510.78 C-379.04 480.42, -352.35 449.9, -337.13 433.04 M-174.43 245.87 C-163.04 233.09, -150.12 220.16, -119.98 183.23 M-174.43 245.87 C-159.46 229.53, -142.96 211.04, -119.98 183.23 M-384.1 511.46 C-365.67 489.46, -341.6 463.02, -316.53 433.73 M-384.1 511.46 C-368.03 492.1, -349.52 472.11, -316.53 433.73 M-157.11 250.33 C-141.66 231.59, -126.7 214.8, -101.34 186.18 M-157.11 250.33 C-136.63 226.1, -115.46 202.59, -101.34 186.18 M-362.84 511.39 C-348.92 491.7, -331.62 475.46, -294.61 432.9 M-362.84 511.39 C-335.12 480.97, -309.1 451.56, -294.61 432.9 M-141.1 256.3 C-121.76 236.34, -107.59 217.48, -82.71 189.13 M-141.1 256.3 C-119.68 232.4, -99.87 208.36, -82.71 189.13 M-341.58 511.32 C-317.39 483.23, -290.53 455.15, -271.38 430.57 M-341.58 511.32 C-325.86 492.41, -310.77 473.87, -271.38 430.57 M-129.68 267.55 C-110.9 244.71, -94.6 227.32, -64.07 192.08 M-129.68 267.55 C-112.43 248.94, -95.77 228.75, -64.07 192.08 M-320.32 511.26 C-301.31 490.28, -280.69 464.35, -244.22 423.71 M-320.32 511.26 C-303.24 491.43, -286.17 472.18, -244.22 423.71 M-126.13 287.86 C-103.2 257.01, -77.7 230.77, -44.78 194.28 M-126.13 287.86 C-108.61 268.8, -91.94 248.81, -44.78 194.28 M-299.72 511.94 C-270.61 477.37, -240.8 447.56, -215.09 414.58 M-299.72 511.94 C-279.77 488.58, -256.76 463.42, -215.09 414.58 M-135.7 323.26 C-109.95 294.82, -83.65 262.4, -26.14 197.23 M-135.7 323.26 C-101.68 285.82, -70.26 247.51, -26.14 197.23 M-278.46 511.87 C-239.06 468.78, -204.15 422.01, -182.02 400.93 M-278.46 511.87 C-255.33 485.03, -231.77 459.4, -182.02 400.93 M-150.53 364.7 C-95.5 298.09, -40.29 235.5, -10.13 203.2 M-150.53 364.7 C-106.12 314.22, -62.14 264.94, -10.13 203.2 M-257.2 511.8 C-187.47 434.53, -118.76 356.86, -17.74 236.33 M-257.2 511.8 C-183.99 427.42, -109.71 342.96, -17.74 236.33 M-235.28 510.98 C-177.44 443.49, -117.78 378.45, -22.06 265.7 M-235.28 510.98 C-154.11 418.74, -73.55 325.89, -22.06 265.7 M-213.37 510.16 C-166.89 455.47, -119.52 401.13, -24.42 292.8 M-213.37 510.16 C-167.35 459.12, -123.57 408.41, -24.42 292.8 M-188.83 506.31 C-149.17 461.16, -108.75 418.42, -33.34 327.45 M-188.83 506.31 C-132.43 440.95, -77.68 377.24, -33.34 327.45 M-161.66 499.45 C-119.83 446.48, -74.56 398.33, -44.23 364.36 M-161.66 499.45 C-138.62 472.3, -112.73 442.8, -44.23 364.36 M-130.56 488.06 C-112.3 465.44, -90.03 443.21, -54.46 400.52 M-130.56 488.06 C-113.03 466.67, -94.4 445.68, -54.46 400.52 M-531.74 460.79 C-531.74 460.79, -531.74 460.79, -531.74 460.79 M-531.74 460.79 C-531.74 460.79, -531.74 460.79, -531.74 460.79 M-505.39 462.5 C-513.43 454.87, -524.43 448.11, -539.35 432.97 M-505.39 462.5 C-518.3 451.81, -532.26 440.26, -539.35 432.97 M-453.39 486.5 C-481.83 462.46, -508.24 438.43, -558.29 395.31 M-453.39 486.5 C-475.63 468.26, -496.05 451.55, -558.29 395.31 M-405.91 506.57 C-448.77 472.43, -488.37 435.88, -556.1 376.02 M-405.91 506.57 C-443.74 474.51, -482.76 439.6, -556.1 376.02 M-381.07 506.96 C-443.01 452.13, -501.22 400.11, -553.15 357.38 M-381.07 506.96 C-439.78 457.66, -498.8 406.5, -553.15 357.38 M-356.24 507.35 C-415.51 455.59, -476.56 401, -550.95 338.09 M-356.24 507.35 C-425.93 444.61, -497.81 383.5, -550.95 338.09 M-332.15 507.09 C-410.12 436.77, -491.96 368.79, -548.76 318.8 M-332.15 507.09 C-390.39 457.72, -446.05 407.79, -548.76 318.8 M-307.32 507.48 C-390.09 433.79, -476.09 360.58, -542.79 302.79 M-307.32 507.48 C-379.55 445.34, -450.49 383.24, -542.79 302.79 M-283.24 507.21 C-314.53 479.95, -346.57 453.4, -381.35 421.92 M-283.24 507.21 C-319.39 476.87, -354.14 447.14, -381.35 421.92 M-416.82 391.09 C-446.94 363.14, -481.41 336.11, -538.33 285.46 M-416.82 391.09 C-442.43 368.83, -469.29 346.3, -538.33 285.46 M-258.4 507.6 C-286.36 484.98, -315.36 456.42, -359.53 419.69 M-258.4 507.6 C-283.78 484.87, -310.81 462.06, -359.53 419.69 M-423.68 363.92 C-453.53 337.17, -482.84 310.26, -533.11 268.8 M-423.68 363.92 C-464 329.29, -501.34 295.47, -533.11 268.8 M-235.07 506.68 C-268.07 478.56, -298.21 449.85, -325.64 427.95 M-235.07 506.68 C-269.7 475.52, -304.26 445.45, -325.64 427.95 M-429.03 338.07 C-456.69 313.12, -484.62 290.22, -527.9 252.13 M-429.03 338.07 C-459.33 312.43, -487.6 285.72, -527.9 252.13 M-209.48 507.72 C-233.53 486.41, -259.48 462.66, -302.31 427.03 M-209.48 507.72 C-229.28 490.01, -248.25 472.03, -302.31 427.03 M-437.4 309.59 C-470.15 280.11, -503.97 252.23, -523.44 234.8 M-437.4 309.59 C-466.24 285.28, -496.39 259.47, -523.44 234.8 M-189.17 504.18 C-223.83 475.24, -253.64 446.73, -283.51 422.17 M-189.17 504.18 C-210.63 486.43, -230.88 467.97, -283.51 422.17 M-437.47 288.33 C-463.78 264.13, -490.97 240.89, -516.72 219.45 M-437.47 288.33 C-461.02 267.03, -485.58 246.25, -516.72 219.45 M-168.86 500.63 C-188.49 481.25, -210.3 464.99, -260.18 421.25 M-168.86 500.63 C-198.19 475.1, -227.71 448.05, -260.18 421.25 M-436.79 267.73 C-462 243.77, -487.74 224.5, -513.77 200.81 M-436.79 267.73 C-461.2 246.01, -485.24 225.11, -513.77 200.81 M-151.58 494.46 C-176.62 474.84, -199.45 455.04, -242.14 415.73 M-151.58 494.46 C-171.95 476.41, -192.87 456.22, -242.14 415.73 M-436.86 246.47 C-459.07 226.14, -482.74 205.13, -510.82 182.18 M-436.86 246.47 C-455.56 230.67, -473.82 215, -510.82 182.18 M-134.29 488.29 C-161.75 462.79, -190.6 437.59, -223.34 410.87 M-134.29 488.29 C-162.15 464.2, -188.16 441.61, -223.34 410.87 M-436.92 225.21 C-460.63 204.98, -489.79 181.97, -507.11 164.2 M-436.92 225.21 C-458.13 205.33, -480.19 187, -507.11 164.2 M-120.77 478.84 C-143.3 460.53, -163.75 440.74, -205.3 405.36 M-120.77 478.84 C-147.71 456.02, -174.52 431.71, -205.3 405.36 M-438.5 202.64 C-456.52 185.28, -477.07 169.81, -504.16 145.56 M-438.5 202.64 C-463.2 181.46, -487.2 160.83, -504.16 145.56 M-105.74 470.7 C-134.4 441.61, -166.29 415.24, -187.25 399.85 M-105.74 470.7 C-125.71 453.72, -144.96 435.41, -187.25 399.85 M-435.55 184 C-449.75 172.54, -465.58 158.56, -500.46 127.58 M-435.55 184 C-455.38 169.05, -473.07 151.41, -500.46 127.58 M-96 457.97 C-126.41 436.01, -154.14 410.16, -172.23 391.71 M-96 457.97 C-120.78 436.76, -145.96 415.25, -172.23 391.71 M-431.85 166.02 C-446.92 152.68, -464.94 137.43, -499.02 107.63 M-431.85 166.02 C-457.48 143.02, -483.5 121.54, -499.02 107.63 M-85.51 445.89 C-102.63 430.82, -121.78 413.34, -160.98 380.29 M-85.51 445.89 C-113.48 421.17, -143.16 395.45, -160.98 380.29 M-426.63 149.35 C-447.36 130.22, -470.41 112.11, -502.86 83.09 M-426.63 149.35 C-454.26 124.82, -480.17 100.91, -502.86 83.09 M-74.25 434.47 C-99.38 413.08, -122.56 393.3, -150.48 368.21 M-74.25 434.47 C-95.17 416.89, -116.22 398.98, -150.48 368.21 M-312.74 227.16 C-317.22 224.45, -319.76 220.75, -322.55 218.63 M-312.74 227.16 C-317.12 224.15, -320.15 219.85, -322.55 218.63 M-421.42 132.69 C-438.11 116.64, -459.88 98.03, -502.93 61.83 M-421.42 132.69 C-443.57 112.69, -467.37 93.74, -502.93 61.83 M-65.27 421.09 C-95.69 395.84, -124.54 367.6, -144.51 352.2 M-65.27 421.09 C-81.42 405.61, -99.83 392.82, -144.51 352.2 M-289.42 226.24 C-302.51 214.87, -315.65 203.3, -322.62 197.37 M-289.42 226.24 C-299.21 216.69, -309.76 208.76, -322.62 197.37 M-416.96 115.36 C-438.38 95.75, -459.45 78.16, -503 40.57 M-416.96 115.36 C-438.67 96.47, -459.09 79.51, -503 40.57 M-54.77 409.01 C-82.03 385.15, -106.9 360.95, -138.54 336.19 M-54.77 409.01 C-78.49 387.65, -102.97 367.73, -138.54 336.19 M-263.82 227.28 C-281.82 208.73, -302.66 193.61, -314.39 183.33 M-263.82 227.28 C-276.14 215.44, -288.38 205.85, -314.39 183.33 M-410.99 99.35 C-433.15 78.98, -453.95 61.16, -503.07 19.31 M-410.99 99.35 C-442.33 71.46, -474.29 44.86, -503.07 19.31 M-50.31 391.69 C-70.36 372.52, -92.65 354.7, -134.08 318.86 M-50.31 391.69 C-75.23 368.58, -102.89 346.28, -134.08 318.86 M-237.48 228.98 C-256.32 209.24, -280.69 191.94, -306.16 169.28 M-237.48 228.98 C-256.24 212.74, -273.35 197.32, -306.16 169.28 M-405.02 83.34 C-423.96 68.79, -446.15 50.48, -503.14 -1.95 M-405.02 83.34 C-427.51 63.49, -451.27 44.15, -503.14 -1.95 M-45.1 375.02 C-64.45 359.28, -83.48 339.85, -128.87 302.2 M-45.1 375.02 C-63.26 356.7, -83.19 339.84, -128.87 302.2 M-211.89 230.03 C-240.41 206.28, -268.01 181.99, -293.4 159.18 M-211.89 230.03 C-239.71 204.66, -268.72 180.47, -293.4 159.18 M-399.06 67.33 C-424.28 45.15, -453.01 21.54, -503.21 -23.21 M-399.06 67.33 C-425.49 44.04, -453.86 20.83, -503.21 -23.21 M-503.21 -23.21 C-503.21 -23.21, -503.21 -23.21, -503.21 -23.21 M-503.21 -23.21 C-503.21 -23.21, -503.21 -23.21, -503.21 -23.21 M-39.88 358.35 C-67.78 337.26, -91.93 314.22, -124.41 284.87 M-39.88 358.35 C-72.67 330.27, -103.74 300.81, -124.41 284.87 M-178.75 237.64 C-205.34 215.83, -230.87 192.35, -276.86 152.35 M-178.75 237.64 C-204.13 216.62, -229.37 193.04, -276.86 152.35 M-393.84 50.66 C-421.52 22.82, -453.43 -4.61, -498.75 -40.53 M-393.84 50.66 C-419.38 27.32, -445.48 5.29, -498.75 -40.53 M-35.42 341.03 C-94.31 287.48, -153.7 237.38, -251.27 153.39 M-35.42 341.03 C-103.6 280.94, -170.12 221.36, -251.27 153.39 M-386.36 35.96 C-429.16 -2.33, -470.21 -36.25, -492.78 -56.54 M-386.36 35.96 C-422.76 5.18, -459.17 -28.31, -492.78 -56.54 M-30.21 324.36 C-88.69 274.77, -148.61 223.98, -221.91 157.72 M-30.21 324.36 C-82.45 277.34, -135.67 231.06, -221.91 157.72 M-381.15 19.29 C-417.66 -12.59, -457.25 -46.73, -484.54 -70.59 M-381.15 19.29 C-419.41 -13.49, -456.02 -46.55, -484.54 -70.59 M-25.75 307.04 C-64.94 273.58, -103.29 239.92, -193.3 161.39 M-25.75 307.04 C-73.35 264.81, -121.05 223.09, -193.3 161.39 M-376.69 1.97 C-401.18 -21.46, -430.86 -43.14, -475.56 -83.98 M-376.69 1.97 C-399.57 -16.94, -421.35 -36.82, -475.56 -83.98 M-20.54 290.37 C-67.91 247.43, -118.24 204.11, -155.63 172.93 M-20.54 290.37 C-73.99 243.43, -129.05 197.68, -155.63 172.93 M-370.72 -14.04 C-399.41 -38.8, -426.47 -65, -466.57 -97.36 M-370.72 -14.04 C-397.33 -37.86, -425.16 -62.29, -466.57 -97.36 M-19.1 270.42 C-40.67 249.96, -67.38 228.88, -125.51 177.92 M-19.1 270.42 C-59.88 234.93, -101.46 198.42, -125.51 177.92 M-357.21 -23.49 C-395.13 -55.47, -430.18 -87.86, -457.58 -110.75 M-357.21 -23.49 C-386.42 -48.41, -416.79 -72.85, -457.58 -110.75 M-17.66 250.47 C-45.66 226.81, -75.29 199.75, -95.39 182.9 M-17.66 250.47 C-44.84 227.67, -73.06 202.67, -95.39 182.9 M-343.69 -32.95 C-380.97 -63.01, -416.23 -95.75, -446.33 -122.17 M-343.69 -32.95 C-367.76 -54.33, -391.38 -76.22, -446.33 -122.17 M-12.44 233.8 C-23.71 223.14, -34.6 216.35, -64.52 188.54 M-12.44 233.8 C-30.31 219.03, -48.02 203.32, -64.52 188.54 M-332.44 -44.36 C-373.6 -80.63, -412.51 -113.34, -435.08 -133.59 M-332.44 -44.36 C-368.39 -73.69, -402.84 -103.77, -435.08 -133.59 M-9.49 215.17 C-19.53 208.28, -26.53 198.16, -35.91 192.21 M-9.49 215.17 C-17.55 209.53, -22.66 203.26, -35.91 192.21 M-315.15 -50.54 C-339.35 -73.77, -364.89 -93.84, -423.83 -145.01 M-315.15 -50.54 C-337.46 -70.02, -360.82 -89.46, -423.83 -145.01 M-288.8 -48.83 C-316.86 -72.42, -344.34 -93.12, -408.8 -153.15 M-288.8 -48.83 C-313.95 -71.53, -339.95 -92.29, -408.8 -153.15 M-264.72 -49.1 C-301.08 -81.87, -337.66 -112.39, -394.53 -161.94 M-264.72 -49.1 C-306.92 -84.15, -348.05 -119.4, -394.53 -161.94 M-240.64 -49.37 C-283.69 -87.88, -328.36 -124, -375.73 -166.8 M-240.64 -49.37 C-289.38 -91.51, -336.3 -132.51, -375.73 -166.8 M-225.61 -57.51 C-263.24 -89.19, -298.4 -121.74, -349.39 -165.1 M-225.61 -57.51 C-265.52 -93.03, -307.22 -128.08, -349.39 -165.1 M-193.23 -50.55 C-240.39 -92.06, -283.07 -132.92, -325.3 -165.37 M-193.23 -50.55 C-220.48 -75.52, -248.02 -98.61, -325.3 -165.37 M-148.77 -33.11 C-209.62 -85.59, -271.69 -137.22, -301.98 -166.29 M-148.77 -33.11 C-201.51 -80.23, -255.03 -126.67, -301.98 -166.29 M-59.79 23.05 C-62.62 21.53, -66.13 18.12, -71.11 13.21 M-59.79 23.05 C-62.17 21.61, -65.02 18.46, -71.11 13.21 M-103.56 -15 C-168.65 -74.7, -232.93 -130.52, -274.88 -163.93 M-103.56 -15 C-149.84 -57.47, -197.84 -97.6, -274.88 -163.93 M-41.74 17.53 C-103.06 -34.37, -163.8 -87.32, -242.49 -156.98 M-41.74 17.53 C-103.31 -36.44, -166.73 -91.23, -242.49 -156.98 M-23.7 12.02 C-64.38 -19.24, -102.08 -54.76, -213.13 -152.65 M-23.7 12.02 C-76.17 -31.2, -126.78 -77.32, -213.13 -152.65 M-5.65 6.5 C-73.53 -50.78, -139.77 -110.09, -183.76 -148.33 M-5.65 6.5 C-74.14 -53.58, -143.42 -114.95, -183.76 -148.33 M4.84 -5.57 C-48.36 -52.79, -99.01 -96.52, -151.38 -141.38 M4.84 -5.57 C-40.13 -46.42, -83.97 -85.32, -151.38 -141.38 M4.78 -26.83 C-29.19 -52.34, -60.91 -80.9, -119 -134.43 M4.78 -26.83 C-26.2 -53.51, -56.71 -78.95, -119 -134.43" stroke="#1e1e1e" stroke-width="2" fill="none"></path><path fill="#343a40" d="M -10.23,0 Q -10.23,0 -10.10,-6.32 -9.98,-12.64 -10.25,-16.89 -10.53,-21.14 -11.59,-26.85 -12.64,-32.57 -14.36,-36.48 -16.08,-40.38 -20.12,-47.38 -24.17,-54.38 -27.10,-58.00 -30.04,-61.62 -33.48,-65.31 -36.93,-68.99 -42.37,-74.76 -47.81,-80.53 -51.79,-83.72 -55.76,-86.91 -62.57,-91.86 -69.38,-96.81 -75.38,-100.74 -81.38,-104.66 -85.40,-106.62 -89.42,-108.59 -93.93,-110.52 -98.45,-112.46 -104.02,-114.64 -109.59,-116.81 -118.56,-119.93 -127.53,-123.04 -132.29,-124.63 -137.05,-126.22 -144.76,-127.99 -152.47,-129.75 -160.41,-130.86 -168.34,-131.98 -182.44,-135.01 -196.55,-138.05 -203.93,-139.53 -211.32,-141.00 -217.01,-141.72 -222.71,-142.44 -229.08,-143.41 -235.45,-144.38 -241.55,-145.21 -247.64,-146.04 -258.87,-147.21 -270.10,-148.38 -277.41,-149.17 -284.73,-149.96 -289.76,-150.02 -294.79,-150.07 -302.85,-149.79 -310.90,-149.52 -318.22,-149.20 -325.53,-148.88 -333.35,-148.66 -341.16,-148.43 -349.15,-147.95 -357.13,-147.47 -364.77,-146.55 -372.40,-145.64 -378.88,-144.53 -385.36,-143.43 -390.57,-141.97 -395.78,-140.50 -400.36,-138.74 -404.94,-136.97 -408.99,-135.07 -413.04,-133.17 -418.48,-129.59 -423.92,-126.01 -429.19,-121.48 -434.45,-116.95 -439.67,-111.60 -444.89,-106.26 -448.79,-102.11 -452.70,-97.96 -455.69,-94.27 -458.68,-90.57 -462.80,-84.79 -466.93,-79.00 -470.15,-73.90 -473.37,-68.81 -475.62,-64.68 -477.87,-60.56 -480.30,-55.67 -482.73,-50.78 -484.32,-46.13 -485.91,-41.47 -486.88,-37.03 -487.85,-32.58 -488.67,-28.33 -489.48,-24.07 -489.77,-19.54 -490.05,-15.02 -490.01,-10.62 -489.96,-6.21 -489.81,-1.47 -489.66,3.26 -489.61,7.77 -489.56,12.29 -489.56,18.66 -489.57,25.03 -490.16,34.99 -490.76,44.94 -491.30,52.00 -491.84,59.06 -492.28,66.08 -492.73,73.11 -493.21,80.09 -493.68,87.07 -494.69,94.62 -495.70,102.17 -497.24,110.51 -498.79,118.85 -501.11,133.82 -503.44,148.78 -505.45,160.08 -507.46,171.38 -509.14,180.48 -510.82,189.57 -512.41,197.67 -513.99,205.77 -514.53,211.09 -515.07,216.40 -516.32,225.09 -517.56,233.78 -518.77,239.33 -519.98,244.88 -521.99,251.78 -524.00,258.68 -526.20,265.45 -528.39,272.21 -530.22,278.11 -532.04,284.01 -533.64,290.14 -535.24,296.26 -537.06,303.18 -538.88,310.10 -541.24,322.32 -543.60,334.54 -544.58,341.56 -545.56,348.58 -545.99,353.64 -546.41,358.71 -546.77,363.91 -547.14,369.11 -547.43,373.59 -547.73,378.08 -547.68,383.76 -547.62,389.44 -546.92,394.03 -546.22,398.63 -543.64,407.05 -541.06,415.48 -538.86,422.00 -536.66,428.53 -534.41,433.49 -532.17,438.45 -528.76,443.41 -525.36,448.37 -521.73,451.87 -518.10,455.38 -514.26,457.87 -510.41,460.35 -505.41,463.07 -500.42,465.80 -496.61,467.74 -492.80,469.67 -485.53,473.78 -478.27,477.89 -472.60,480.51 -466.92,483.12 -461.09,485.39 -455.26,487.66 -449.16,489.71 -443.06,491.75 -437.38,493.28 -431.70,494.81 -426.25,496.15 -420.79,497.49 -412.73,499.12 -404.67,500.76 -397.33,501.58 -389.99,502.41 -383.64,502.62 -377.29,502.83 -371.45,502.81 -365.60,502.80 -358.92,502.34 -352.24,501.89 -346.57,501.86 -340.90,501.83 -334.46,501.93 -328.02,502.02 -323.12,501.89 -318.23,501.75 -308.72,501.56 -299.21,501.38 -293.98,501.33 -288.74,501.29 -282.63,501.38 -276.52,501.46 -270.33,501.55 -264.14,501.63 -259.21,501.53 -254.28,501.43 -246.68,500.93 -239.08,500.42 -232.18,499.67 -225.28,498.92 -218.94,498.02 -212.59,497.11 -206.71,496.29 -200.84,495.46 -195.36,494.67 -189.89,493.88 -184.77,492.85 -179.65,491.81 -173.36,489.92 -167.06,488.02 -162.68,486.27 -158.29,484.52 -152.30,482.13 -146.32,479.73 -140.72,477.51 -135.12,475.28 -130.24,472.66 -125.37,470.04 -122.07,466.84 -118.77,463.65 -115.01,459.05 -111.24,454.44 -108.40,450.78 -105.55,447.12 -101.08,442.31 -96.61,437.49 -93.00,433.70 -89.40,429.91 -86.46,425.48 -83.52,421.04 -80.31,416.22 -77.10,411.41 -74.53,407.12 -71.96,402.83 -70.56,398.54 -69.15,394.25 -67.11,387.75 -65.07,381.25 -63.18,375.83 -61.30,370.41 -59.07,364.37 -56.85,358.33 -54.80,352.89 -52.75,347.45 -50.81,342.05 -48.87,336.65 -46.71,330.66 -44.54,324.67 -42.45,318.22 -40.35,311.76 -38.60,305.06 -36.85,298.37 -35.48,291.16 -34.10,283.95 -33.15,276.76 -32.20,269.57 -31.95,264.70 -31.70,259.84 -31.27,255.46 -30.83,251.09 -30.27,246.22 -29.70,241.36 -29.00,235.67 -28.30,229.98 -27.31,225.64 -26.32,221.29 -25.10,217.08 -23.88,212.87 -21.47,207.93 -19.06,202.99 -19.18,207.73 -19.30,212.47 -23.53,210.48 -27.76,208.49 -33.83,208.86 -39.90,209.22 -44.12,208.57 -48.33,207.92 -53.53,207.23 -58.73,206.54 -64.62,205.76 -70.52,204.99 -76.97,203.77 -83.42,202.55 -89.22,201.69 -95.03,200.83 -99.97,200.03 -104.91,199.23 -109.61,198.49 -114.31,197.75 -119.07,197.06 -123.83,196.37 -128.29,195.63 -132.74,194.88 -137.12,194.18 -141.50,193.48 -145.73,192.73 -149.97,191.97 -155.80,190.98 -161.63,190.00 -167.03,189.28 -172.44,188.57 -178.89,187.59 -185.35,186.62 -190.93,185.86 -196.51,185.09 -202.39,184.40 -208.28,183.71 -213.31,183.00 -218.33,182.29 -222.96,181.91 -227.58,181.52 -233.95,181.06 -240.31,180.59 -246.50,180.45 -252.69,180.30 -257.47,180.25 -262.25,180.20 -267.27,180.16 -272.29,180.11 -277.66,180.04 -283.03,179.97 -287.59,180.04 -292.16,180.11 -295.22,183.91 -298.28,187.71 -301.95,192.31 -305.63,196.91 -308.77,201.57 -311.92,206.24 -313.29,211.84 -314.66,217.44 -308.84,216.17 -303.02,214.91 -297.07,215.89 -291.12,216.87 -284.87,217.34 -278.62,217.81 -271.76,218.22 -264.90,218.62 -256.72,219.33 -248.53,220.03 -242.04,220.36 -235.55,220.69 -231.13,220.89 -226.71,221.09 -220.14,221.72 -213.58,222.34 -207.37,223.48 -201.17,224.62 -194.48,226.54 -187.79,228.46 -182.64,229.85 -177.49,231.25 -172.83,232.32 -168.16,233.40 -162.67,234.22 -157.18,235.03 -152.99,236.02 -148.80,237.00 -144.53,238.72 -140.25,240.45 -136.51,242.72 -132.78,245.00 -129.00,247.36 -125.22,249.72 -121.58,253.85 -117.93,257.98 -115.78,261.73 -113.62,265.47 -112.55,270.73 -111.48,275.99 -111.39,280.73 -111.30,285.47 -111.84,290.12 -112.38,294.77 -113.28,299.05 -114.19,303.34 -115.69,308.38 -117.20,313.42 -119.17,319.32 -121.14,325.23 -122.49,329.72 -123.84,334.22 -125.29,338.97 -126.74,343.72 -128.13,347.75 -129.51,351.77 -131.69,356.87 -133.86,361.97 -135.54,366.55 -137.22,371.13 -139.00,375.10 -140.78,379.07 -144.13,384.23 -147.47,389.39 -150.55,392.56 -153.63,395.73 -156.67,398.81 -159.72,401.90 -163.10,405.10 -166.49,408.31 -170.68,410.98 -174.88,413.66 -178.45,416.07 -182.02,418.48 -186.10,420.59 -190.17,422.70 -194.85,424.19 -199.53,425.67 -203.94,427.26 -208.34,428.85 -212.55,430.01 -216.76,431.16 -220.94,432.56 -225.12,433.95 -230.07,435.60 -235.01,437.25 -240.57,438.53 -246.13,439.80 -250.40,441.04 -254.67,442.27 -260.09,443.66 -265.51,445.05 -271.97,445.81 -278.42,446.58 -282.91,447.08 -287.40,447.58 -292.15,447.86 -296.90,448.14 -301.67,448.36 -306.43,448.57 -312.09,448.64 -317.75,448.70 -325.16,448.40 -332.56,448.09 -337.92,447.61 -343.29,447.12 -348.20,446.60 -353.10,446.08 -358.16,445.17 -363.23,444.25 -367.72,443.40 -372.22,442.55 -376.34,441.14 -380.45,439.73 -384.68,438.20 -388.90,436.67 -393.89,434.71 -398.87,432.75 -403.92,430.76 -408.96,428.76 -413.92,425.91 -418.88,423.05 -422.78,419.15 -426.67,415.25 -428.99,411.46 -431.32,407.67 -432.70,402.66 -434.08,397.66 -436.20,393.40 -438.32,389.14 -440.47,383.37 -442.61,377.61 -444.06,372.74 -445.50,367.87 -446.48,362.97 -447.45,358.07 -448.34,353.45 -449.24,348.84 -449.95,344.61 -450.66,340.37 -451.72,333.64 -452.78,326.92 -453.64,318.90 -454.50,310.88 -454.63,306.19 -454.77,301.50 -454.85,295.25 -454.93,289.00 -454.96,283.99 -455.00,278.98 -454.87,272.32 -454.74,265.66 -454.57,260.87 -454.39,256.08 -454.17,250.73 -453.94,245.39 -453.73,239.96 -453.52,234.53 -453.36,230.27 -453.20,226.01 -453.06,219.85 -452.92,213.68 -452.79,208.59 -452.66,203.50 -452.06,198.28 -451.46,193.06 -450.82,188.61 -450.19,184.16 -449.48,179.44 -448.77,174.73 -447.86,169.50 -446.96,164.28 -445.96,159.95 -444.95,155.62 -443.63,151.27 -442.31,146.92 -441.15,142.11 -439.98,137.29 -438.50,132.99 -437.02,128.68 -435.71,124.56 -434.40,120.44 -433.06,116.15 -431.72,111.85 -430.48,107.28 -429.24,102.71 -427.90,98.30 -426.57,93.90 -424.57,88.50 -422.57,83.10 -421.03,78.98 -419.48,74.86 -418.05,70.30 -416.63,65.74 -414.73,60.54 -412.83,55.34 -411.21,49.34 -409.59,43.35 -408.22,38.97 -406.84,34.59 -405.64,30.04 -404.43,25.48 -402.92,19.56 -401.41,13.63 -400.13,8.73 -398.84,3.83 -396.91,-0.97 -394.98,-5.78 -392.58,-9.60 -390.17,-13.43 -386.87,-17.27 -383.56,-21.12 -380.23,-24.27 -376.91,-27.42 -373.34,-30.26 -369.77,-33.11 -364.79,-36.79 -359.82,-40.47 -355.78,-42.95 -351.74,-45.43 -347.43,-47.48 -343.12,-49.53 -339.30,-51.44 -335.49,-53.36 -330.96,-55.14 -326.42,-56.92 -322.01,-57.69 -317.59,-58.46 -313.27,-58.85 -308.95,-59.25 -302.99,-59.81 -297.03,-60.38 -290.94,-60.63 -284.85,-60.88 -280.47,-60.95 -276.08,-61.03 -269.67,-61.28 -263.26,-61.54 -257.74,-61.59 -252.22,-61.63 -244.00,-60.99 -235.77,-60.36 -230.80,-59.54 -225.83,-58.73 -218.94,-57.42 -212.05,-56.11 -207.73,-54.97 -203.42,-53.83 -196.03,-52.48 -188.65,-51.12 -183.16,-49.79 -177.68,-48.46 -171.23,-47.18 -164.79,-45.90 -158.70,-44.74 -152.62,-43.58 -147.90,-42.09 -143.17,-40.61 -137.44,-38.95 -131.71,-37.30 -127.24,-36.11 -122.77,-34.93 -118.50,-33.65 -114.24,-32.37 -110.04,-31.26 -105.85,-30.15 -101.24,-28.26 -96.62,-26.37 -92.89,-24.06 -89.16,-21.76 -85.53,-18.72 -81.90,-15.68 -78.56,-12.45 -75.22,-9.23 -72.07,-5.08 -68.93,-0.93 -66.43,3.27 -63.93,7.48 -60.76,11.81 -57.59,16.14 -62.23,12.64 -66.86,9.13 -60.85,7.18 -54.83,5.23 -49.36,4.27 -43.89,3.30 -38.37,2.05 -32.84,0.81 -27.89,-0.39 -22.93,-1.60 -18.62,-2.08 -14.31,-2.57 -14.67,-2.52 -15.03,-2.47 -14.24,-4.80 -13.45,-7.14 -11.96,-9.10 -10.47,-11.06 -8.43,-12.44 -6.38,-13.82 -4.01,-14.48 -1.64,-15.14 0.82,-15.00 3.28,-14.87 5.57,-13.96 7.85,-13.04 9.73,-11.45 11.61,-9.85 12.88,-7.74 14.15,-5.63 14.68,-3.22 15.21,-0.81 14.94,1.63 14.67,4.08 13.63,6.31 12.60,8.55 10.90,10.34 9.21,12.13 7.03,13.28 4.85,14.43 2.42,14.83 -0.00,15.23 -2.44,14.83 -4.87,14.43 -7.04,13.27 -9.22,12.12 -10.91,10.33 -12.61,8.54 -13.64,6.30 -14.67,4.06 -14.94,1.61 -15.20,-0.83 -14.67,-3.24 -14.14,-5.64 -12.87,-7.75 -11.60,-9.86 -9.72,-11.46 -7.84,-13.05 -5.55,-13.96 -3.26,-14.87 -0.80,-15.00 1.65,-15.14 4.03,-14.48 6.40,-13.81 8.44,-12.43 10.48,-11.05 11.97,-9.08 13.46,-7.12 14.24,-4.78 15.03,-2.45 15.03,0.01 15.02,2.47 15.03,2.47 15.03,2.47 12.97,7.81 10.92,13.15 7.26,17.00 3.61,20.84 -0.26,23.21 -4.14,25.58 -8.72,26.63 -13.30,27.69 -17.58,28.18 -21.86,28.67 -26.54,29.89 -31.21,31.11 -36.32,32.05 -41.43,32.99 -47.07,34.27 -52.70,35.54 -57.99,36.86 -63.29,38.19 -70.45,37.57 -77.62,36.96 -80.68,32.87 -83.73,28.79 -86.74,25.36 -89.75,21.92 -92.09,17.75 -94.44,13.58 -97.94,9.51 -101.43,5.43 -104.84,2.14 -108.25,-1.14 -112.29,-2.99 -116.33,-4.84 -120.72,-6.24 -125.10,-7.65 -129.36,-9.14 -133.62,-10.62 -138.59,-12.40 -143.55,-14.17 -150.88,-16.27 -158.21,-18.37 -164.06,-19.63 -169.92,-20.88 -176.48,-22.30 -183.03,-23.72 -187.51,-24.54 -191.98,-25.37 -196.39,-25.91 -200.80,-26.46 -209.13,-28.15 -217.46,-29.85 -223.36,-30.96 -229.26,-32.07 -237.62,-32.73 -245.98,-33.38 -251.73,-33.31 -257.47,-33.24 -262.49,-33.08 -267.51,-32.92 -275.19,-32.22 -282.87,-31.52 -288.47,-31.11 -294.06,-30.70 -299.96,-29.87 -305.86,-29.05 -310.73,-28.59 -315.60,-28.13 -320.39,-26.32 -325.19,-24.51 -329.92,-22.20 -334.66,-19.88 -338.70,-17.50 -342.74,-15.12 -346.52,-12.32 -350.30,-9.51 -353.64,-6.80 -356.98,-4.10 -360.42,-0.71 -363.87,2.66 -366.32,6.17 -368.77,9.68 -370.20,14.02 -371.62,18.36 -372.70,22.59 -373.77,26.83 -374.86,31.21 -375.95,35.59 -377.15,39.82 -378.36,44.05 -379.67,48.31 -380.98,52.57 -382.29,56.79 -383.60,61.02 -385.27,65.87 -386.94,70.72 -388.69,75.77 -390.45,80.82 -392.36,86.21 -394.27,91.60 -395.91,95.94 -397.55,100.29 -399.31,105.26 -401.07,110.24 -402.58,115.51 -404.09,120.79 -406.02,126.49 -407.95,132.19 -410.05,137.95 -412.16,143.71 -413.65,149.34 -415.14,154.98 -416.69,159.55 -418.24,164.13 -419.51,168.56 -420.79,173.00 -421.72,177.85 -422.65,182.70 -423.71,187.70 -424.78,192.70 -425.45,196.90 -426.13,201.09 -426.70,205.54 -427.28,209.98 -427.64,215.04 -428.01,220.10 -428.24,227.31 -428.46,234.53 -428.26,239.96 -428.05,245.39 -427.82,250.73 -427.59,256.07 -427.42,260.86 -427.25,265.65 -427.11,272.28 -426.97,278.90 -426.95,283.69 -426.94,288.47 -426.74,294.21 -426.54,299.95 -425.53,307.78 -424.51,315.62 -423.16,323.20 -421.80,330.78 -420.94,334.99 -420.09,339.19 -419.20,344.12 -418.31,349.05 -417.29,354.11 -416.28,359.18 -414.77,364.26 -413.26,369.35 -411.46,373.99 -409.65,378.62 -407.69,383.04 -405.74,387.46 -404.42,391.99 -403.10,396.52 -399.21,399.44 -395.31,402.35 -390.76,404.18 -386.20,406.01 -382.06,407.64 -377.92,409.28 -373.93,410.85 -369.95,412.41 -364.32,413.98 -358.69,415.54 -353.85,416.50 -349.01,417.46 -344.64,418.01 -340.27,418.55 -335.77,418.93 -331.28,419.31 -324.69,419.25 -318.10,419.20 -313.41,419.04 -308.72,418.89 -304.08,418.59 -299.44,418.28 -295.19,417.95 -290.94,417.63 -286.43,417.02 -281.92,416.41 -275.71,415.49 -269.49,414.57 -264.77,413.09 -260.06,411.61 -255.91,410.52 -251.77,409.43 -247.63,408.45 -243.49,407.46 -238.03,405.63 -232.57,403.79 -227.84,402.10 -223.12,400.42 -218.79,399.16 -214.47,397.90 -209.83,396.53 -205.18,395.16 -200.93,393.20 -196.68,391.24 -193.13,388.88 -189.59,386.51 -185.90,384.00 -182.22,381.48 -178.79,377.86 -175.37,374.24 -172.09,370.63 -168.82,367.03 -166.98,363.05 -165.13,359.08 -163.42,354.86 -161.71,350.64 -159.89,346.52 -158.07,342.41 -156.28,337.55 -154.50,332.70 -152.95,327.39 -151.41,322.08 -149.90,316.70 -148.39,311.32 -146.86,306.29 -145.34,301.26 -144.16,297.11 -142.99,292.97 -142.34,287.29 -141.69,281.62 -142.14,277.28 -142.60,272.95 -146.71,269.57 -150.81,266.19 -155.90,264.66 -160.99,263.12 -165.18,262.28 -169.37,261.44 -175.03,260.21 -180.68,258.98 -184.93,257.86 -189.17,256.73 -195.18,255.22 -201.18,253.71 -207.83,252.01 -214.48,250.32 -219.47,249.48 -224.46,248.63 -230.94,248.19 -237.42,247.75 -243.64,247.50 -249.86,247.26 -258.12,247.04 -266.38,246.83 -273.39,246.69 -280.40,246.55 -287.42,246.29 -294.44,246.03 -301.40,245.21 -308.36,244.38 -314.82,243.26 -321.29,242.13 -326.17,240.71 -331.06,239.28 -334.95,236.01 -338.83,232.74 -340.54,228.72 -342.25,224.69 -342.68,219.75 -343.12,214.80 -342.78,210.52 -342.44,206.24 -341.63,202.03 -340.82,197.83 -338.66,193.69 -336.50,189.55 -333.25,184.76 -329.99,179.96 -326.76,175.90 -323.54,171.85 -319.89,167.41 -316.25,162.96 -312.58,158.90 -308.91,154.83 -303.01,152.80 -297.11,150.77 -292.62,150.86 -288.13,150.95 -283.57,150.99 -279.02,151.03 -273.14,150.93 -267.26,150.84 -262.18,150.79 -257.10,150.75 -252.46,150.73 -247.82,150.72 -241.08,150.96 -234.34,151.20 -228.19,151.72 -222.03,152.24 -217.21,152.82 -212.39,153.40 -207.86,154.18 -203.32,154.95 -198.97,155.47 -194.61,155.99 -189.23,156.87 -183.85,157.75 -178.51,158.70 -173.16,159.64 -166.89,160.48 -160.63,161.32 -154.92,162.39 -149.20,163.46 -144.99,164.25 -140.77,165.04 -136.49,165.79 -132.21,166.55 -127.99,167.33 -123.76,168.10 -119.35,168.84 -114.94,169.57 -110.19,170.27 -105.43,170.97 -100.51,171.78 -95.60,172.60 -90.51,173.48 -85.42,174.37 -78.92,175.38 -72.42,176.39 -66.76,177.19 -61.10,177.98 -55.45,178.67 -49.79,179.36 -43.18,180.33 -36.57,181.30 -31.69,182.02 -26.81,182.73 -22.40,183.45 -17.98,184.16 -13.17,186.68 -8.35,189.20 -4.98,191.99 -1.62,194.78 1.49,200.20 4.60,205.61 2.82,211.45 1.05,217.28 -1.24,220.88 -3.53,224.49 -5.57,228.97 -7.61,233.46 -8.98,238.79 -10.35,244.11 -12.00,252.83 -13.64,261.54 -14.31,266.42 -14.97,271.29 -15.50,278.89 -16.03,286.49 -16.79,294.47 -17.54,302.45 -18.77,309.83 -20.00,317.22 -21.53,324.29 -23.06,331.36 -24.69,337.57 -26.33,343.79 -27.91,349.51 -29.49,355.24 -31.00,360.42 -32.51,365.61 -33.91,371.71 -35.31,377.81 -36.55,383.37 -37.80,388.93 -39.56,395.40 -41.33,401.86 -43.56,408.80 -45.78,415.74 -48.26,420.02 -50.73,424.30 -53.87,428.82 -57.01,433.33 -60.00,438.05 -62.98,442.78 -66.61,446.98 -70.24,451.18 -73.27,454.34 -76.30,457.49 -79.86,461.17 -83.42,464.84 -86.23,468.41 -89.03,471.97 -93.36,477.12 -97.68,482.27 -100.78,485.44 -103.87,488.60 -108.40,491.62 -112.94,494.63 -117.38,496.77 -121.82,498.91 -127.49,501.07 -133.16,503.22 -139.11,505.13 -145.06,507.03 -149.47,508.70 -153.87,510.37 -160.01,512.28 -166.15,514.19 -173.36,515.83 -180.58,517.47 -186.65,518.24 -192.72,519.01 -198.34,519.36 -203.97,519.71 -210.11,520.24 -216.25,520.76 -223.88,521.23 -231.50,521.69 -238.33,521.61 -245.16,521.53 -249.72,521.54 -254.28,521.56 -259.21,521.46 -264.14,521.36 -270.33,521.44 -276.52,521.53 -282.63,521.61 -288.74,521.70 -293.98,521.66 -299.21,521.61 -308.72,521.42 -318.24,521.23 -323.13,521.09 -328.03,520.96 -334.48,521.04 -340.93,521.13 -346.65,521.09 -352.37,521.04 -359.15,520.45 -365.93,519.85 -371.96,519.61 -377.98,519.36 -384.67,519.03 -391.36,518.70 -399.16,518.25 -406.95,517.80 -416.22,517.12 -425.50,516.44 -431.07,515.03 -436.64,513.62 -442.71,512.06 -448.77,510.51 -455.41,508.67 -462.05,506.84 -468.62,504.72 -475.19,502.61 -481.09,500.31 -486.99,498.01 -495.47,495.30 -503.96,492.59 -508.10,490.65 -512.25,488.71 -518.13,485.34 -524.01,481.96 -529.58,477.90 -535.14,473.83 -540.28,468.30 -545.42,462.77 -550.20,455.29 -554.98,447.80 -557.21,441.97 -559.45,436.14 -561.59,428.95 -563.74,421.77 -565.58,414.79 -567.43,407.81 -568.30,402.83 -569.16,397.84 -568.61,393.05 -568.06,388.27 -566.87,382.07 -565.67,375.88 -564.89,371.55 -564.11,367.22 -563.29,361.82 -562.47,356.43 -561.47,351.45 -560.46,346.47 -559.44,339.31 -558.41,332.16 -556.73,319.16 -555.04,306.15 -553.43,299.03 -551.82,291.92 -550.09,285.32 -548.35,278.72 -546.39,272.94 -544.42,267.17 -542.44,260.67 -540.47,254.17 -538.74,247.45 -537.01,240.73 -535.52,235.19 -534.03,229.65 -531.63,221.81 -529.22,213.96 -527.94,208.71 -526.66,203.46 -525.31,195.49 -523.97,187.52 -522.81,178.41 -521.64,169.30 -520.35,158.07 -519.06,146.85 -517.67,131.80 -516.28,116.75 -515.84,108.60 -515.41,100.44 -515.15,93.53 -514.88,86.62 -515.07,79.87 -515.26,73.11 -515.71,66.08 -516.15,59.06 -516.69,52.00 -517.23,44.94 -517.78,38.14 -518.32,31.34 -518.40,25.50 -518.47,19.67 -518.44,14.15 -518.41,8.62 -518.32,3.86 -518.23,-0.88 -518.06,-5.38 -517.90,-9.87 -517.39,-14.32 -516.87,-18.77 -516.15,-24.30 -515.42,-29.83 -514.44,-33.99 -513.45,-38.16 -511.95,-43.85 -510.45,-49.54 -508.08,-55.64 -505.71,-61.75 -502.56,-67.66 -499.40,-73.58 -496.59,-78.00 -493.78,-82.43 -490.10,-87.67 -486.41,-92.91 -481.78,-98.99 -477.14,-105.08 -473.93,-109.28 -470.72,-113.47 -463.90,-121.47 -457.09,-129.47 -450.87,-135.27 -444.66,-141.07 -438.00,-146.04 -431.33,-151.00 -427.64,-153.12 -423.94,-155.24 -416.00,-158.89 -408.06,-162.54 -401.92,-164.16 -395.79,-165.77 -388.96,-166.81 -382.13,-167.85 -374.54,-168.65 -366.94,-169.46 -362.58,-169.79 -358.21,-170.13 -353.87,-170.28 -349.52,-170.44 -341.39,-170.39 -333.26,-170.34 -325.65,-170.05 -318.04,-169.75 -310.45,-169.30 -302.85,-168.85 -298.40,-168.53 -293.96,-168.22 -288.68,-167.80 -283.41,-167.37 -275.94,-167.05 -268.48,-166.72 -261.07,-166.33 -253.67,-165.94 -249.43,-165.25 -245.19,-164.55 -239.01,-163.76 -232.82,-162.96 -226.53,-162.14 -220.23,-161.32 -214.40,-160.52 -208.56,-159.73 -200.98,-159.00 -193.40,-158.27 -179.29,-156.80 -165.18,-155.33 -160.83,-154.72 -156.47,-154.11 -151.98,-153.36 -147.48,-152.60 -143.20,-151.63 -138.92,-150.65 -134.43,-149.45 -129.94,-148.25 -125.24,-146.79 -120.53,-145.32 -110.46,-142.43 -100.40,-139.53 -94.33,-136.82 -88.27,-134.11 -83.72,-131.67 -79.17,-129.23 -74.10,-126.02 -69.03,-122.81 -62.76,-118.03 -56.50,-113.26 -53.17,-110.49 -49.83,-107.72 -46.51,-104.92 -43.18,-102.13 -39.01,-98.58 -34.83,-95.03 -27.87,-89.69 -20.91,-84.35 -16.80,-80.16 -12.69,-75.97 -8.69,-71.19 -4.69,-66.42 -1.64,-61.60 1.40,-56.77 3.28,-52.88 5.16,-49.00 7.05,-42.41 8.93,-35.83 9.44,-28.82 9.96,-21.81 9.97,-17.23 9.98,-12.65 10.10,-6.32 10.23,0 10.08,1.22 9.93,2.44 9.50,3.60 9.06,4.75 8.36,5.77 7.66,6.78 6.73,7.60 5.81,8.42 4.72,8.99 3.62,9.57 2.43,9.86 1.23,10.16 -0.00,10.16 -1.23,10.16 -2.43,9.86 -3.63,9.57 -4.72,8.99 -5.81,8.42 -6.73,7.60 -7.66,6.78 -8.36,5.77 -9.06,4.75 -9.50,3.60 -9.93,2.44 -10.08,1.22 -10.23,-0.00 -10.23,-0.00 L -10.23,0 Z"></path></g></svg>